<svg xmlns="http://www.w3.org/2000/svg" width="176" height="176" viewBox="0 0 176 176">
<!-- shape-sprite4-aliased: exact geometry, written by kit/tools/shape_set.py -->
<rect width="176" height="176" fill="#ffffff"/>
<rect x="8" y="8" width="4" height="4" fill="#d62828"/>
<rect x="72" y="8" width="4" height="4" fill="#d62828"/>
<rect x="120" y="8" width="4" height="4" fill="#d62828"/>
<rect x="12" y="12" width="4" height="4" fill="#d62828"/>
<rect x="28" y="12" width="4" height="4" fill="#d62828"/>
<rect x="68" y="12" width="4" height="4" fill="#d62828"/>
<rect x="76" y="12" width="4" height="4" fill="#d62828"/>
<rect x="116" y="12" width="4" height="4" fill="#d62828"/>
<rect x="16" y="16" width="4" height="4" fill="#d62828"/>
<rect x="40" y="16" width="16" height="4" fill="#1a1a1a"/>
<rect x="64" y="16" width="4" height="4" fill="#d62828"/>
<rect x="80" y="16" width="4" height="4" fill="#d62828"/>
<rect x="112" y="16" width="4" height="4" fill="#d62828"/>
<rect x="20" y="20" width="4" height="4" fill="#d62828"/>
<rect x="36" y="20" width="4" height="4" fill="#1a1a1a"/>
<rect x="56" y="20" width="4" height="4" fill="#1a1a1a"/>
<rect x="60" y="20" width="4" height="4" fill="#d62828"/>
<rect x="84" y="20" width="4" height="4" fill="#d62828"/>
<rect x="108" y="20" width="4" height="4" fill="#d62828"/>
<rect x="24" y="24" width="4" height="4" fill="#d62828"/>
<rect x="32" y="24" width="4" height="4" fill="#1a1a1a"/>
<rect x="60" y="24" width="4" height="4" fill="#1a1a1a"/>
<rect x="88" y="24" width="4" height="4" fill="#d62828"/>
<rect x="104" y="24" width="4" height="4" fill="#d62828"/>
<rect x="28" y="28" width="4" height="4" fill="#d62828"/>
<rect x="32" y="28" width="4" height="4" fill="#1a1a1a"/>
<rect x="44" y="28" width="8" height="4" fill="#1d4ed8"/>
<rect x="60" y="28" width="4" height="4" fill="#1a1a1a"/>
<rect x="92" y="28" width="4" height="4" fill="#d62828"/>
<rect x="100" y="28" width="4" height="4" fill="#d62828"/>
<rect x="32" y="32" width="4" height="4" fill="#1a1a1a"/>
<rect x="44" y="32" width="8" height="4" fill="#1d4ed8"/>
<rect x="60" y="32" width="4" height="4" fill="#1a1a1a"/>
<rect x="96" y="32" width="4" height="4" fill="#d62828"/>
<rect x="36" y="36" width="4" height="4" fill="#1a1a1a"/>
<rect x="56" y="36" width="4" height="4" fill="#1a1a1a"/>
<rect x="96" y="36" width="4" height="4" fill="#d62828"/>
<rect x="40" y="40" width="16" height="4" fill="#1a1a1a"/>
<rect x="96" y="40" width="4" height="4" fill="#d62828"/>
<rect x="96" y="44" width="4" height="4" fill="#d62828"/>
</svg>
