<svg xmlns="http://www.w3.org/2000/svg" width="160" height="100" viewBox="0 0 160 100">
<!-- shape-dots-aliased: exact geometry, written by kit/tools/shape_set.py -->
<rect width="160" height="100" fill="#ffffff"/>
<rect x="10" y="10" width="1" height="1" fill="#111111"/>
<rect x="12" y="10" width="1" height="1" fill="#111111"/>
<rect x="14" y="10" width="1" height="1" fill="#111111"/>
<rect x="16" y="10" width="1" height="1" fill="#111111"/>
<rect x="18" y="10" width="1" height="1" fill="#111111"/>
<rect x="20" y="10" width="1" height="1" fill="#111111"/>
<rect x="22" y="10" width="1" height="1" fill="#111111"/>
<rect x="24" y="10" width="1" height="1" fill="#111111"/>
<rect x="26" y="10" width="1" height="1" fill="#111111"/>
<rect x="28" y="10" width="1" height="1" fill="#111111"/>
<rect x="30" y="10" width="1" height="1" fill="#111111"/>
<rect x="32" y="10" width="1" height="1" fill="#111111"/>
<rect x="34" y="10" width="1" height="1" fill="#111111"/>
<rect x="36" y="10" width="1" height="1" fill="#111111"/>
<rect x="38" y="10" width="1" height="1" fill="#111111"/>
<rect x="40" y="10" width="1" height="1" fill="#111111"/>
<rect x="42" y="10" width="1" height="1" fill="#111111"/>
<rect x="44" y="10" width="1" height="1" fill="#111111"/>
<rect x="46" y="10" width="1" height="1" fill="#111111"/>
<rect x="48" y="10" width="1" height="1" fill="#111111"/>
<rect x="50" y="10" width="1" height="1" fill="#111111"/>
<rect x="52" y="10" width="1" height="1" fill="#111111"/>
<rect x="54" y="10" width="1" height="1" fill="#111111"/>
<rect x="56" y="10" width="1" height="1" fill="#111111"/>
<rect x="58" y="10" width="1" height="1" fill="#111111"/>
<rect x="60" y="10" width="1" height="1" fill="#111111"/>
<rect x="62" y="10" width="1" height="1" fill="#111111"/>
<rect x="64" y="10" width="1" height="1" fill="#111111"/>
<rect x="66" y="10" width="1" height="1" fill="#111111"/>
<rect x="68" y="10" width="1" height="1" fill="#111111"/>
<rect x="70" y="10" width="1" height="1" fill="#111111"/>
<rect x="72" y="10" width="1" height="1" fill="#111111"/>
<rect x="74" y="10" width="1" height="1" fill="#111111"/>
<rect x="76" y="10" width="1" height="1" fill="#111111"/>
<rect x="78" y="10" width="1" height="1" fill="#111111"/>
<rect x="80" y="10" width="1" height="1" fill="#111111"/>
<rect x="82" y="10" width="1" height="1" fill="#111111"/>
<rect x="84" y="10" width="1" height="1" fill="#111111"/>
<rect x="86" y="10" width="1" height="1" fill="#111111"/>
<rect x="88" y="10" width="1" height="1" fill="#111111"/>
<rect x="10" y="60" width="3" height="1" fill="#111111"/>
<rect x="15" y="60" width="3" height="1" fill="#111111"/>
<rect x="20" y="60" width="3" height="1" fill="#111111"/>
<rect x="25" y="60" width="3" height="1" fill="#111111"/>
<rect x="30" y="60" width="3" height="1" fill="#111111"/>
<rect x="35" y="60" width="3" height="1" fill="#111111"/>
<rect x="40" y="60" width="3" height="1" fill="#111111"/>
<rect x="45" y="60" width="3" height="1" fill="#111111"/>
<rect x="50" y="60" width="3" height="1" fill="#111111"/>
<rect x="55" y="60" width="3" height="1" fill="#111111"/>
<rect x="60" y="60" width="3" height="1" fill="#111111"/>
<rect x="65" y="60" width="3" height="1" fill="#111111"/>
<rect x="70" y="60" width="3" height="1" fill="#111111"/>
<rect x="75" y="60" width="3" height="1" fill="#111111"/>
<rect x="80" y="60" width="3" height="1" fill="#111111"/>
<rect x="85" y="60" width="3" height="1" fill="#111111"/>
<rect x="10" y="20" width="1" height="1" fill="#1d4ed8"/>
<rect x="12" y="22" width="1" height="1" fill="#1d4ed8"/>
<rect x="14" y="24" width="1" height="1" fill="#1d4ed8"/>
<rect x="16" y="26" width="1" height="1" fill="#1d4ed8"/>
<rect x="18" y="28" width="1" height="1" fill="#1d4ed8"/>
<rect x="20" y="30" width="1" height="1" fill="#1d4ed8"/>
<rect x="22" y="32" width="1" height="1" fill="#1d4ed8"/>
<rect x="24" y="34" width="1" height="1" fill="#1d4ed8"/>
<rect x="26" y="36" width="1" height="1" fill="#1d4ed8"/>
<rect x="28" y="38" width="1" height="1" fill="#1d4ed8"/>
<rect x="30" y="40" width="1" height="1" fill="#1d4ed8"/>
<rect x="32" y="42" width="1" height="1" fill="#1d4ed8"/>
<rect x="34" y="44" width="1" height="1" fill="#1d4ed8"/>
<rect x="36" y="46" width="1" height="1" fill="#1d4ed8"/>
<rect x="38" y="48" width="1" height="1" fill="#1d4ed8"/>
<rect x="100" y="15" width="1" height="1" fill="#dc2626"/>
<rect x="120" y="25" width="1" height="1" fill="#dc2626"/>
<rect x="140" y="12" width="1" height="1" fill="#dc2626"/>
<rect x="110" y="40" width="1" height="1" fill="#dc2626"/>
<rect x="130" y="50" width="1" height="1" fill="#dc2626"/>
<rect x="100" y="70" width="2" height="2" fill="#15803d"/>
<rect x="106" y="70" width="2" height="2" fill="#15803d"/>
<rect x="112" y="70" width="2" height="2" fill="#15803d"/>
<rect x="118" y="70" width="2" height="2" fill="#15803d"/>
<rect x="124" y="70" width="2" height="2" fill="#15803d"/>
<rect x="130" y="70" width="2" height="2" fill="#15803d"/>
<rect x="136" y="70" width="2" height="2" fill="#15803d"/>
<rect x="142" y="70" width="2" height="2" fill="#15803d"/>
<rect x="148" y="70" width="2" height="2" fill="#15803d"/>
</svg>
