<svg xmlns="http://www.w3.org/2000/svg" width="208" height="176" viewBox="0 0 208 176">
<!-- shape-sprite-aliased: exact geometry, written by kit/tools/shape_set.py -->
<rect width="208" height="176" fill="#ffffff"/>
<rect x="72" y="8" width="64" height="16" fill="#1a1a1a"/>
<rect x="40" y="24" width="32" height="16" fill="#1a1a1a"/>
<rect x="72" y="24" width="64" height="16" fill="#d62828"/>
<rect x="136" y="24" width="32" height="16" fill="#1a1a1a"/>
<rect x="24" y="40" width="16" height="16" fill="#1a1a1a"/>
<rect x="40" y="40" width="128" height="16" fill="#d62828"/>
<rect x="168" y="40" width="16" height="16" fill="#1a1a1a"/>
<rect x="8" y="56" width="16" height="16" fill="#1a1a1a"/>
<rect x="24" y="56" width="48" height="16" fill="#d62828"/>
<rect x="72" y="56" width="32" height="16" fill="#ffffff"/>
<rect x="104" y="56" width="80" height="16" fill="#d62828"/>
<rect x="184" y="56" width="16" height="16" fill="#1a1a1a"/>
<rect x="8" y="72" width="16" height="16" fill="#1a1a1a"/>
<rect x="24" y="72" width="48" height="16" fill="#d62828"/>
<rect x="72" y="72" width="32" height="16" fill="#ffffff"/>
<rect x="104" y="72" width="80" height="16" fill="#d62828"/>
<rect x="184" y="72" width="16" height="16" fill="#1a1a1a"/>
<rect x="8" y="88" width="16" height="16" fill="#1a1a1a"/>
<rect x="24" y="88" width="160" height="16" fill="#d62828"/>
<rect x="184" y="88" width="16" height="16" fill="#1a1a1a"/>
<rect x="24" y="104" width="16" height="16" fill="#1a1a1a"/>
<rect x="40" y="104" width="128" height="16" fill="#d62828"/>
<rect x="168" y="104" width="16" height="16" fill="#1a1a1a"/>
<rect x="40" y="120" width="16" height="16" fill="#1a1a1a"/>
<rect x="56" y="120" width="96" height="16" fill="#d62828"/>
<rect x="152" y="120" width="16" height="16" fill="#1a1a1a"/>
<rect x="56" y="136" width="32" height="16" fill="#1a1a1a"/>
<rect x="88" y="136" width="32" height="16" fill="#d62828"/>
<rect x="120" y="136" width="32" height="16" fill="#1a1a1a"/>
<rect x="88" y="152" width="32" height="16" fill="#1a1a1a"/>
</svg>
