<svg xmlns="http://www.w3.org/2000/svg" width="176" height="176" viewBox="0 0 176 176">
<!-- shape-sprite8-aliased: exact geometry, written by kit/tools/shape_set.py -->
<rect width="176" height="176" fill="#f5f0e1"/>
<rect x="40" y="4" width="96" height="12" fill="#1a1a1a"/>
<rect x="28" y="16" width="12" height="12" fill="#1a1a1a"/>
<rect x="136" y="16" width="12" height="12" fill="#1a1a1a"/>
<rect x="16" y="28" width="12" height="12" fill="#1a1a1a"/>
<rect x="52" y="28" width="72" height="12" fill="#2e9e4f"/>
<rect x="148" y="28" width="12" height="12" fill="#1a1a1a"/>
<rect x="4" y="40" width="12" height="12" fill="#1a1a1a"/>
<rect x="40" y="40" width="12" height="12" fill="#2e9e4f"/>
<rect x="124" y="40" width="12" height="12" fill="#2e9e4f"/>
<rect x="160" y="40" width="12" height="12" fill="#1a1a1a"/>
<rect x="4" y="52" width="12" height="12" fill="#1a1a1a"/>
<rect x="28" y="52" width="12" height="12" fill="#2e9e4f"/>
<rect x="64" y="52" width="12" height="12" fill="#1d4ed8"/>
<rect x="100" y="52" width="12" height="12" fill="#1d4ed8"/>
<rect x="136" y="52" width="12" height="12" fill="#2e9e4f"/>
<rect x="160" y="52" width="12" height="12" fill="#1a1a1a"/>
<rect x="4" y="64" width="12" height="12" fill="#1a1a1a"/>
<rect x="28" y="64" width="12" height="12" fill="#2e9e4f"/>
<rect x="136" y="64" width="12" height="12" fill="#2e9e4f"/>
<rect x="160" y="64" width="12" height="12" fill="#1a1a1a"/>
<rect x="4" y="76" width="12" height="12" fill="#1a1a1a"/>
<rect x="28" y="76" width="12" height="12" fill="#2e9e4f"/>
<rect x="52" y="76" width="12" height="12" fill="#1d4ed8"/>
<rect x="112" y="76" width="12" height="12" fill="#1d4ed8"/>
<rect x="136" y="76" width="12" height="12" fill="#2e9e4f"/>
<rect x="160" y="76" width="12" height="12" fill="#1a1a1a"/>
<rect x="4" y="88" width="12" height="12" fill="#1a1a1a"/>
<rect x="28" y="88" width="12" height="12" fill="#2e9e4f"/>
<rect x="64" y="88" width="48" height="12" fill="#1d4ed8"/>
<rect x="136" y="88" width="12" height="12" fill="#2e9e4f"/>
<rect x="160" y="88" width="12" height="12" fill="#1a1a1a"/>
<rect x="4" y="100" width="12" height="12" fill="#1a1a1a"/>
<rect x="40" y="100" width="12" height="12" fill="#2e9e4f"/>
<rect x="124" y="100" width="12" height="12" fill="#2e9e4f"/>
<rect x="160" y="100" width="12" height="12" fill="#1a1a1a"/>
<rect x="16" y="112" width="12" height="12" fill="#1a1a1a"/>
<rect x="52" y="112" width="72" height="12" fill="#2e9e4f"/>
<rect x="148" y="112" width="12" height="12" fill="#1a1a1a"/>
<rect x="28" y="124" width="12" height="12" fill="#1a1a1a"/>
<rect x="136" y="124" width="12" height="12" fill="#1a1a1a"/>
<rect x="40" y="136" width="96" height="12" fill="#1a1a1a"/>
</svg>
