<?xml version="1.0" encoding="UTF-8" ?>
<!DOCTYPE svg PUBLIC "-//W3C//DTD SVG 1.1//EN" "http://www.w3.org/Graphics/SVG/1.1/DTD/svg11.dtd">
<svg width="256pt" height="171pt" viewBox="0 0 256 171" version="1.1" xmlns="http://www.w3.org/2000/svg">
<g id="#23170dff">
<path fill="#23170d" opacity="1.00" d=" M 0.00 0.00 L 65.48 0.00 C 50.99 10.72 36.05 20.97 21.75 31.86 C 19.54 32.95 17.49 34.30 15.50 35.73 C 9.92 38.62 5.14 42.77 0.00 46.33 L 0.00 0.00 Z" />
</g>
<g id="#973c16ff">
<path fill="#973c16" opacity="1.00" d=" M 65.48 0.00 L 74.39 0.00 C 67.44 2.79 63.13 9.75 56.03 12.07 C 49.10 14.18 45.63 21.06 39.04 23.84 C 33.20 26.35 28.01 30.34 21.75 31.86 C 36.05 20.97 50.99 10.72 65.48 0.00 Z" />
</g>
<g id="#ba5d28ff">
<path fill="#ba5d28" opacity="1.00" d=" M 74.39 0.00 L 96.26 0.00 C 97.99 5.73 89.17 2.63 90.53 7.70 C 88.15 10.48 84.98 12.31 81.28 11.31 C 76.99 14.81 71.37 17.86 68.81 22.83 C 79.77 18.52 61.10 34.88 63.42 24.87 C 53.53 30.39 45.23 38.31 36.56 45.50 C 33.27 48.18 41.60 44.57 38.22 47.26 C 36.00 51.34 31.80 44.64 28.80 47.74 C 19.37 55.13 9.21 61.49 0.00 69.18 L 0.00 66.23 C 9.56 58.29 20.97 52.65 29.77 43.81 C 32.23 41.82 30.13 37.65 33.08 36.10 C 35.47 33.82 39.53 34.17 41.20 31.04 C 36.36 31.13 32.13 33.19 27.86 35.16 C 30.10 29.81 39.38 30.51 39.04 23.84 C 45.63 21.06 49.10 14.18 56.03 12.07 C 63.13 9.75 67.44 2.79 74.39 0.00 Z" />
</g>
<g id="#9d4720ff">
<path fill="#9d4720" opacity="1.00" d=" M 96.26 0.00 L 111.53 0.00 C 96.46 11.12 80.24 20.67 66.95 33.96 C 60.64 39.07 54.11 43.95 48.46 49.82 C 47.83 49.65 46.59 49.30 45.96 49.12 C 30.24 57.91 15.96 69.16 0.00 77.42 L 0.00 69.18 C 9.21 61.49 19.37 55.13 28.80 47.74 C 31.80 44.64 36.00 51.34 38.22 47.26 C 41.60 44.57 33.27 48.18 36.56 45.50 C 45.23 38.31 53.53 30.39 63.42 24.87 C 61.10 34.88 79.77 18.52 68.81 22.83 C 71.37 17.86 76.99 14.81 81.28 11.31 C 84.98 12.31 88.15 10.48 90.53 7.70 C 89.17 2.63 97.99 5.73 96.26 0.00 Z" />
</g>
<g id="#be632fff">
<path fill="#be632f" opacity="1.00" d=" M 111.53 0.00 L 177.82 0.00 C 181.27 2.87 181.78 11.19 188.10 7.16 C 190.67 3.84 194.18 5.13 196.70 7.71 C 198.07 4.70 203.16 2.40 201.71 7.63 C 196.52 9.74 194.19 13.89 192.89 18.90 C 188.62 19.30 186.69 20.54 188.76 26.14 C 180.61 26.27 184.35 15.80 180.82 11.01 C 174.10 10.09 168.78 15.91 167.91 22.14 C 171.23 20.89 173.62 17.61 177.78 19.05 C 180.55 22.32 180.23 27.03 181.06 31.06 C 177.51 27.31 172.38 29.74 168.90 32.28 C 149.83 -0.24 92.72 -1.38 76.12 34.05 C 73.88 34.86 65.07 39.10 69.96 34.99 C 72.59 33.17 68.11 34.20 66.95 33.96 C 80.24 20.67 96.46 11.12 111.53 0.00 Z" />
</g>
<g id="#c9703aff">
<path fill="#c9703a" opacity="1.00" d=" M 177.82 0.00 L 209.44 0.00 C 209.14 3.05 203.87 2.37 205.28 5.68 C 205.60 9.12 211.71 8.59 209.88 12.68 C 206.50 14.04 204.18 17.24 204.02 20.91 C 203.59 25.85 198.92 30.60 205.03 34.12 C 202.52 38.52 196.18 40.64 197.85 46.89 C 196.23 52.60 188.16 50.53 187.74 45.03 C 176.25 46.66 191.68 56.01 193.36 61.85 C 192.01 67.12 188.05 56.36 184.98 54.92 C 182.99 52.61 181.23 47.16 177.62 47.76 L 176.96 47.93 C 178.23 42.27 181.64 37.07 181.06 31.06 C 180.23 27.03 180.55 22.32 177.78 19.05 C 173.62 17.61 171.23 20.89 167.91 22.14 C 168.78 15.91 174.10 10.09 180.82 11.01 C 184.35 15.80 180.61 26.27 188.76 26.14 C 186.69 20.54 188.62 19.30 192.89 18.90 C 194.19 13.89 196.52 9.74 201.71 7.63 C 203.16 2.40 198.07 4.70 196.70 7.71 C 194.18 5.13 190.67 3.84 188.10 7.16 C 181.78 11.19 181.27 2.87 177.82 0.00 Z" />
</g>
<g id="#c27443ff">
<path fill="#c27443" opacity="1.00" d=" M 209.44 0.00 L 210.49 0.00 C 212.56 2.31 215.96 3.93 215.82 7.51 C 213.57 8.43 210.00 9.54 211.09 12.73 C 215.29 17.38 221.90 6.58 225.83 13.20 C 230.86 18.57 216.14 15.20 221.15 22.64 C 224.36 24.24 228.43 24.89 228.83 29.13 C 231.86 29.54 235.39 33.78 230.77 34.57 C 227.26 35.35 223.80 39.07 224.10 42.76 C 226.00 45.21 229.47 42.55 232.08 42.99 C 232.69 46.06 229.67 47.33 227.85 49.11 C 229.10 52.88 234.43 51.22 235.35 54.96 C 233.19 56.60 231.11 58.36 229.22 60.30 C 225.35 58.36 220.83 53.60 216.67 57.74 C 213.78 62.12 223.85 67.76 216.51 70.56 C 213.86 74.82 218.68 74.13 221.17 72.24 C 226.33 69.49 232.24 71.39 237.15 73.63 C 230.17 74.11 235.07 77.44 239.01 78.50 C 237.25 82.16 231.14 78.03 231.77 83.02 C 230.47 79.56 227.12 77.65 224.18 75.74 C 216.49 75.44 207.18 75.82 200.11 79.96 C 199.87 79.03 199.65 78.10 199.47 77.15 C 200.15 72.79 197.17 68.96 195.32 65.25 C 198.72 62.22 201.25 58.01 201.36 53.33 C 205.80 49.19 211.69 46.66 215.30 41.47 C 219.45 41.92 220.07 37.95 216.38 36.56 C 213.01 34.40 217.13 31.90 219.32 34.33 C 223.60 33.88 225.80 28.15 220.62 26.43 C 212.53 30.29 211.76 17.99 204.02 20.91 C 204.18 17.24 206.50 14.04 209.88 12.68 C 211.71 8.59 205.60 9.12 205.28 5.68 C 203.87 2.37 209.14 3.05 209.44 0.00 Z" />
</g>
<g id="#c68152ff">
<path fill="#c68152" opacity="1.00" d=" M 210.49 0.00 L 225.60 0.00 C 225.82 4.58 231.11 5.51 233.89 8.24 C 235.26 11.50 228.39 12.03 230.67 15.29 C 232.68 18.24 233.10 21.57 232.06 24.96 C 240.48 20.27 236.29 35.20 245.08 32.36 C 244.99 34.92 243.21 36.96 241.72 38.89 C 239.20 39.21 236.71 35.63 235.23 39.24 C 236.36 44.16 238.85 50.95 235.35 54.96 C 234.43 51.22 229.10 52.88 227.85 49.11 C 229.67 47.33 232.69 46.06 232.08 42.99 C 229.47 42.55 226.00 45.21 224.10 42.76 C 223.80 39.07 227.26 35.35 230.77 34.57 C 235.39 33.78 231.86 29.54 228.83 29.13 C 228.43 24.89 224.36 24.24 221.15 22.64 C 216.14 15.20 230.86 18.57 225.83 13.20 C 221.90 6.58 215.29 17.38 211.09 12.73 C 210.00 9.54 213.57 8.43 215.82 7.51 C 215.96 3.93 212.56 2.31 210.49 0.00 Z" />
</g>
<g id="#cd9062ff">
<path fill="#cd9062" opacity="1.00" d=" M 225.60 0.00 L 245.39 0.00 C 239.51 0.67 238.16 10.80 243.74 12.44 C 246.75 11.15 244.61 14.58 245.98 15.95 C 247.66 14.88 249.12 13.38 251.10 12.86 C 250.88 16.40 247.90 18.95 247.37 22.43 C 245.58 27.21 250.38 30.83 249.76 35.46 C 244.65 36.56 245.94 41.89 248.07 45.12 C 246.61 44.52 245.20 43.78 243.76 43.13 C 242.47 46.01 248.12 50.14 244.31 52.25 C 242.86 53.27 238.17 51.06 239.34 54.51 C 242.51 56.94 245.98 58.87 249.79 60.09 C 248.89 58.14 246.57 53.47 250.70 55.19 C 251.67 58.99 253.70 62.21 256.00 65.33 L 256.00 68.62 C 252.78 64.75 248.42 63.06 243.43 62.91 C 242.24 60.09 236.61 56.52 236.71 61.84 C 236.72 66.88 231.09 63.22 227.99 64.78 C 224.34 64.61 228.01 61.47 229.22 60.30 C 231.11 58.36 233.19 56.60 235.35 54.96 C 238.85 50.95 236.36 44.16 235.23 39.24 C 236.71 35.63 239.20 39.21 241.72 38.89 C 243.21 36.96 244.99 34.92 245.08 32.36 C 236.29 35.20 240.48 20.27 232.06 24.96 C 233.10 21.57 232.68 18.24 230.67 15.29 C 228.39 12.03 235.26 11.50 233.89 8.24 C 231.11 5.51 225.82 4.58 225.60 0.00 Z" />
</g>
<g id="#dba77aff">
<path fill="#dba77a" opacity="1.00" d=" M 245.39 0.00 L 256.00 0.00 L 256.00 65.33 C 253.70 62.21 251.67 58.99 250.70 55.19 C 246.57 53.47 248.89 58.14 249.79 60.09 C 245.98 58.87 242.51 56.94 239.34 54.51 C 238.17 51.06 242.86 53.27 244.31 52.25 C 248.12 50.14 242.47 46.01 243.76 43.13 C 245.20 43.78 246.61 44.52 248.07 45.12 C 245.94 41.89 244.65 36.56 249.76 35.46 C 250.38 30.83 245.58 27.21 247.37 22.43 C 247.90 18.95 250.88 16.40 251.10 12.86 C 249.12 13.38 247.66 14.88 245.98 15.95 C 244.61 14.58 246.75 11.15 243.74 12.44 C 238.16 10.80 239.51 0.67 245.39 0.00 Z" />
</g>
<g id="#f5e6d6ff">
<path fill="#f5e6d6" opacity="1.00" d=" M 76.12 34.05 C 92.72 -1.38 149.83 -0.24 168.90 32.28 C 173.02 40.20 174.68 49.38 173.23 58.22 C 171.21 63.77 168.81 69.27 164.96 73.82 C 157.39 81.78 146.82 85.99 136.30 88.33 C 130.13 88.03 123.95 88.06 117.78 88.20 C 116.60 88.06 115.43 87.90 114.26 87.74 C 96.59 84.18 79.99 72.64 74.78 54.70 C 73.95 47.77 73.34 40.62 76.12 34.05 M 107.91 15.93 C 92.50 18.74 79.11 36.83 82.89 51.02 C 82.86 53.48 82.88 56.24 84.73 58.11 C 85.34 59.36 85.37 61.36 86.77 61.97 C 87.10 62.54 87.77 63.69 88.10 64.26 C 88.64 65.26 88.82 66.62 89.90 67.20 C 90.67 68.36 91.66 69.40 92.85 70.13 C 99.93 76.61 109.36 81.05 118.97 82.00 C 121.33 84.52 132.60 83.21 135.01 82.03 C 143.17 81.20 151.81 77.28 157.10 71.05 C 157.37 70.81 157.92 70.34 158.19 70.10 C 161.28 68.00 162.34 64.08 164.07 60.92 C 166.72 60.29 164.46 54.27 166.01 52.99 C 168.25 35.08 152.58 20.93 136.71 16.24 C 127.93 12.01 116.23 12.50 107.91 15.93 Z" />
</g>
<g id="#e1bc99ff">
<path fill="#e1bc99" opacity="1.00" d=" M 107.91 15.93 C 116.23 12.50 127.93 12.01 136.71 16.24 C 152.58 20.93 168.25 35.08 166.01 52.99 C 164.46 54.27 166.72 60.29 164.07 60.92 C 162.65 50.47 152.67 43.58 144.96 37.10 C 138.97 29.13 128.04 27.77 121.93 20.15 C 119.24 15.02 112.80 16.27 107.91 15.93 Z" />
</g>
<g id="#d9ac82ff">
<path fill="#d9ac82" opacity="1.00" d=" M 82.89 51.02 C 79.11 36.83 92.50 18.74 107.91 15.93 C 112.80 16.27 119.24 15.02 121.93 20.15 C 128.04 27.77 138.97 29.13 144.96 37.10 C 130.79 30.13 115.13 27.50 100.10 23.17 C 88.01 25.73 82.83 39.89 82.89 51.02 Z" />
</g>
<g id="#b86638ff">
<path fill="#b86638" opacity="1.00" d=" M 204.02 20.91 C 211.76 17.99 212.53 30.29 220.62 26.43 C 225.80 28.15 223.60 33.88 219.32 34.33 C 217.13 31.90 213.01 34.40 216.38 36.56 C 220.07 37.95 219.45 41.92 215.30 41.47 C 211.69 46.66 205.80 49.19 201.36 53.33 C 201.25 58.01 198.72 62.22 195.32 65.25 C 194.64 64.12 194.00 62.98 193.36 61.85 C 191.68 56.01 176.25 46.66 187.74 45.03 C 188.16 50.53 196.23 52.60 197.85 46.89 C 196.18 40.64 202.52 38.52 205.03 34.12 C 198.92 30.60 203.59 25.85 204.02 20.91 Z" />
</g>
<g id="#cb905aff">
<path fill="#cb905a" opacity="1.00" d=" M 82.89 51.02 C 82.83 39.89 88.01 25.73 100.10 23.17 C 115.13 27.50 130.79 30.13 144.96 37.10 C 152.67 43.58 162.65 50.47 164.07 60.92 C 162.34 64.08 161.28 68.00 158.19 70.10 C 157.85 66.57 156.79 63.15 155.36 59.91 C 152.99 54.30 148.80 49.71 143.97 46.09 C 133.43 35.26 115.65 30.55 102.01 38.08 C 94.14 42.09 85.43 48.48 84.73 58.11 C 82.88 56.24 82.86 53.48 82.89 51.02 Z" />
</g>
<g id="#ab4c1eff">
<path fill="#ab4c1e" opacity="1.00" d=" M 21.75 31.86 C 28.01 30.34 33.20 26.35 39.04 23.84 C 39.38 30.51 30.10 29.81 27.86 35.16 C 32.13 33.19 36.36 31.13 41.20 31.04 C 39.53 34.17 35.47 33.82 33.08 36.10 C 30.13 37.65 32.23 41.82 29.77 43.81 C 20.97 52.65 9.56 58.29 0.00 66.23 L 0.00 58.29 C 3.94 55.42 9.75 56.00 12.02 51.01 C 15.69 46.10 22.77 46.03 26.09 41.06 C 23.36 39.82 20.63 42.04 17.84 40.95 C 18.61 39.34 19.45 37.78 20.18 36.16 C 18.40 36.56 15.40 39.19 15.50 35.73 C 17.49 34.30 19.54 32.95 21.75 31.86 Z" />
</g>
<g id="#d0ac89ff">
<path fill="#d0ac89" opacity="1.00" d=" M 168.90 32.28 C 172.38 29.74 177.51 27.31 181.06 31.06 C 181.64 37.07 178.23 42.27 176.96 47.93 C 176.88 48.38 176.70 49.29 176.62 49.74 C 175.66 52.63 174.38 55.40 173.23 58.22 C 174.68 49.38 173.02 40.20 168.90 32.28 Z" />
</g>
<g id="#ab3013ff">
<path fill="#ab3013" opacity="1.00" d=" M 66.95 33.96 C 68.11 34.20 72.59 33.17 69.96 34.99 C 65.07 39.10 73.88 34.86 76.12 34.05 C 73.34 40.62 73.95 47.77 74.78 54.70 C 72.34 66.58 75.23 79.43 82.84 88.92 C 82.59 89.19 82.08 89.75 81.82 90.03 L 81.13 89.54 C 81.00 89.14 80.74 88.34 80.61 87.94 C 74.79 90.07 70.95 97.41 64.20 96.40 C 61.62 98.64 60.85 102.30 58.77 104.97 C 56.35 104.88 54.20 103.61 51.91 102.96 C 57.05 108.95 49.61 114.15 45.90 118.45 C 45.07 116.52 44.20 114.60 43.28 112.71 C 42.09 107.89 40.58 103.14 39.79 98.24 C 42.56 96.59 38.05 83.03 38.28 90.73 C 35.35 98.62 39.88 106.63 42.22 114.04 C 42.96 116.35 44.06 118.63 46.13 120.03 C 48.04 122.22 49.09 124.96 48.47 127.86 C 47.79 130.00 50.25 133.14 52.47 132.18 C 53.14 132.94 53.63 133.83 54.13 134.71 C 54.26 137.56 56.45 139.37 59.04 140.09 C 65.11 147.67 74.51 151.04 82.48 156.14 C 80.68 156.93 78.72 156.29 76.85 156.18 C 61.01 147.65 46.65 135.17 38.84 118.68 C 37.37 114.87 35.98 111.03 34.63 107.18 C 32.27 106.42 32.76 109.64 32.19 111.10 C 26.26 109.21 29.79 102.18 32.37 98.65 C 32.66 92.75 32.00 86.78 32.94 80.87 C 34.78 73.90 36.48 66.65 40.62 60.63 C 44.85 58.54 43.65 52.31 48.46 49.82 C 54.11 43.95 60.64 39.07 66.95 33.96 M 68.29 81.32 C 62.74 84.36 58.06 89.34 55.08 94.86 C 60.14 97.17 62.31 85.89 67.79 85.99 C 67.76 95.00 74.18 78.66 68.29 81.32 Z" />
</g>
<g id="#c48044ff">
<path fill="#c48044" opacity="1.00" d=" M 102.01 38.08 C 115.65 30.55 133.43 35.26 143.97 46.09 C 138.39 43.00 132.30 40.48 125.75 41.11 C 119.47 40.81 113.09 40.89 107.07 42.88 C 95.91 42.26 90.25 53.18 86.77 61.97 C 85.37 61.36 85.34 59.36 84.73 58.11 C 85.43 48.48 94.14 42.09 102.01 38.08 Z" />
</g>
<g id="#983914ff">
<path fill="#983914" opacity="1.00" d=" M 0.00 46.33 C 5.14 42.77 9.92 38.62 15.50 35.73 C 15.40 39.19 18.40 36.56 20.18 36.16 C 19.45 37.78 18.61 39.34 17.84 40.95 C 12.39 45.45 4.76 46.37 0.00 52.27 L 0.00 46.33 Z" />
</g>
<g id="#c76a2eff">
<path fill="#c76a2e" opacity="1.00" d=" M 17.84 40.95 C 20.63 42.04 23.36 39.82 26.09 41.06 C 22.77 46.03 15.69 46.10 12.02 51.01 C 9.75 56.00 3.94 55.42 0.00 58.29 L 0.00 52.27 C 4.76 46.37 12.39 45.45 17.84 40.95 Z" />
</g>
<g id="#993910ff">
<path fill="#993910" opacity="1.00" d=" M 107.07 42.88 C 113.09 40.89 119.47 40.81 125.75 41.11 C 131.79 44.51 139.12 45.70 143.85 51.23 C 145.02 54.16 141.77 54.32 139.81 55.09 C 135.78 52.80 131.57 50.73 127.09 49.50 C 117.81 47.34 108.47 50.46 101.10 56.07 C 98.58 56.30 92.68 57.67 94.16 53.25 C 97.79 49.00 102.60 46.12 107.07 42.88 Z" />
</g>
<g id="#b65419ff">
<path fill="#b65419" opacity="1.00" d=" M 125.75 41.11 C 132.30 40.48 138.39 43.00 143.97 46.09 C 148.80 49.71 152.99 54.30 155.36 59.91 C 151.58 61.30 147.72 58.92 143.85 59.04 C 142.43 57.81 141.09 56.47 139.81 55.09 C 141.77 54.32 145.02 54.16 143.85 51.23 C 139.12 45.70 131.79 44.51 125.75 41.11 Z" />
</g>
<g id="#b04814ff">
<path fill="#b04814" opacity="1.00" d=" M 86.77 61.97 C 90.25 53.18 95.91 42.26 107.07 42.88 C 102.60 46.12 97.79 49.00 94.16 53.25 C 92.68 57.67 98.58 56.30 101.10 56.07 C 96.56 58.48 92.87 62.29 88.10 64.26 C 87.77 63.69 87.10 62.54 86.77 61.97 Z" />
</g>
<g id="#f5d1adff">
<path fill="#f5d1ad" opacity="1.00" d=" M 177.62 47.76 C 181.23 47.16 182.99 52.61 184.98 54.92 C 182.37 52.70 179.80 50.41 177.62 47.76 Z" />
</g>
<g id="#b52e11ff">
<path fill="#b52e11" opacity="1.00" d=" M 176.96 47.93 L 177.62 47.76 C 179.80 50.41 182.37 52.70 184.98 54.92 C 187.80 60.85 192.48 65.72 195.16 71.74 C 192.70 82.09 201.27 92.90 196.73 103.64 C 197.99 111.67 188.45 108.90 185.13 113.29 C 183.98 117.67 192.95 119.89 189.32 124.38 C 187.62 126.91 184.13 121.34 183.49 124.36 C 183.44 141.43 167.53 152.72 152.96 157.92 C 152.24 157.97 150.80 158.09 150.08 158.15 C 158.42 151.97 169.23 147.05 172.62 136.46 C 175.00 132.23 180.31 121.84 172.80 120.57 C 172.97 119.10 173.12 117.62 173.28 116.15 C 175.15 116.22 176.87 115.05 176.74 113.04 C 174.28 102.47 168.51 91.46 173.85 80.88 C 173.89 71.67 178.32 62.76 177.21 53.54 C 177.01 52.27 176.81 51.01 176.62 49.74 C 176.70 49.29 176.88 48.38 176.96 47.93 Z" />
</g>
<g id="#b96c3cff">
<path fill="#b96c3c" opacity="1.00" d=" M 45.96 49.12 C 46.59 49.30 47.83 49.65 48.46 49.82 C 43.65 52.31 44.85 58.54 40.62 60.63 C 36.48 66.65 34.78 73.90 32.94 80.87 C 30.00 83.09 26.62 86.12 22.65 85.26 C 16.34 82.17 12.20 91.22 5.86 91.13 C 8.77 87.21 14.01 85.79 16.70 81.57 C 12.24 80.06 17.38 76.23 14.89 73.08 C 9.65 75.59 4.73 78.78 0.00 82.16 L 0.00 77.42 C 15.96 69.16 30.24 57.91 45.96 49.12 Z" />
</g>
<g id="#ca6e27ff">
<path fill="#ca6e27" opacity="1.00" d=" M 101.10 56.07 C 108.47 50.46 117.81 47.34 127.09 49.50 C 126.04 52.81 134.85 52.57 137.30 55.70 C 120.81 52.94 103.00 56.61 89.90 67.20 C 88.82 66.62 88.64 65.26 88.10 64.26 C 92.87 62.29 96.56 58.48 101.10 56.07 Z" />
</g>
<g id="#e7b077ff">
<path fill="#e7b077" opacity="1.00" d=" M 137.30 55.70 C 134.85 52.57 126.04 52.81 127.09 49.50 C 131.57 50.73 135.78 52.80 139.81 55.09 C 141.09 56.47 142.43 57.81 143.85 59.04 C 144.69 60.43 145.48 61.85 146.29 63.25 C 145.77 63.41 144.72 63.74 144.20 63.90 C 142.97 60.39 140.67 57.41 137.30 55.70 Z" />
</g>
<g id="#7a2614ff">
<path fill="#7a2614" opacity="1.00" d=" M 173.23 58.22 C 174.38 55.40 175.66 52.63 176.62 49.74 C 176.81 51.01 177.01 52.27 177.21 53.54 C 172.91 67.44 169.94 81.73 165.52 95.61 C 163.72 100.07 168.68 103.55 168.03 108.09 C 165.41 105.04 161.13 105.09 158.08 102.80 C 157.30 99.19 161.55 100.24 163.60 100.90 C 163.48 99.34 163.34 97.78 163.31 96.22 C 163.91 94.49 164.57 92.77 164.94 90.97 C 165.30 88.92 165.60 86.85 165.84 84.79 C 164.65 86.03 163.58 87.39 162.68 88.85 C 161.94 89.97 161.17 91.25 161.86 92.59 C 159.02 95.20 156.54 99.23 155.15 93.79 C 162.02 88.61 165.76 79.68 169.09 71.83 C 168.02 72.82 167.05 73.90 166.12 75.01 C 165.83 74.71 165.25 74.12 164.96 73.82 C 168.81 69.27 171.21 63.77 173.23 58.22 Z" />
</g>
<g id="#9f250cff">
<path fill="#9f250c" opacity="1.00" d=" M 165.52 95.61 C 169.94 81.73 172.91 67.44 177.21 53.54 C 178.32 62.76 173.89 71.67 173.85 80.88 C 168.51 91.46 174.28 102.47 176.74 113.04 C 176.87 115.05 175.15 116.22 173.28 116.15 C 172.42 112.95 170.13 110.54 168.03 108.09 C 168.68 103.55 163.72 100.07 165.52 95.61 Z" />
</g>
<g id="#791b0cff">
<path fill="#791b0c" opacity="1.00" d=" M 82.84 88.92 C 75.23 79.43 72.34 66.58 74.78 54.70 C 79.99 72.64 96.59 84.18 114.26 87.74 C 107.58 90.45 101.68 87.74 96.08 84.12 C 94.02 86.34 98.24 89.22 98.38 91.89 C 86.18 85.39 80.61 72.51 75.05 60.73 C 74.95 68.76 81.50 74.73 83.91 82.04 C 85.21 89.02 92.03 92.53 98.20 94.34 C 97.78 95.13 97.36 95.92 96.92 96.70 C 94.56 99.32 97.41 100.73 99.85 101.14 C 97.68 102.10 95.34 101.16 93.10 101.05 C 91.79 100.18 90.47 99.30 89.25 98.30 C 87.54 94.90 85.01 92.02 82.84 88.92 Z" />
</g>
<g id="#df842fff">
<path fill="#df842f" opacity="1.00" d=" M 89.90 67.20 C 103.00 56.61 120.81 52.94 137.30 55.70 C 140.67 57.41 142.97 60.39 144.20 63.90 C 127.17 57.32 107.94 59.73 92.85 70.13 C 91.66 69.40 90.67 68.36 89.90 67.20 Z" />
</g>
<g id="#e5a57bff">
<path fill="#e5a57b" opacity="1.00" d=" M 184.98 54.92 C 188.05 56.36 192.01 67.12 193.36 61.85 C 194.00 62.98 194.64 64.12 195.32 65.25 C 197.17 68.96 200.15 72.79 199.47 77.15 C 198.10 75.45 198.14 70.52 195.16 71.74 C 192.48 65.72 187.80 60.85 184.98 54.92 Z" />
</g>
<g id="#c58151ff">
<path fill="#c58151" opacity="1.00" d=" M 216.67 57.74 C 220.83 53.60 225.35 58.36 229.22 60.30 C 228.01 61.47 224.34 64.61 227.99 64.78 C 231.09 63.22 236.72 66.88 236.71 61.84 C 236.61 56.52 242.24 60.09 243.43 62.91 C 241.11 64.04 235.84 64.00 237.25 67.67 C 240.00 71.31 244.44 73.16 247.10 76.99 C 250.27 79.91 253.37 75.10 252.01 80.80 C 246.07 80.03 241.10 77.74 237.15 73.63 C 232.24 71.39 226.33 69.49 221.17 72.24 C 218.68 74.13 213.86 74.82 216.51 70.56 C 223.85 67.76 213.78 62.12 216.67 57.74 Z" />
</g>
<g id="#d37527ff">
<path fill="#d37527" opacity="1.00" d=" M 143.85 59.04 C 147.72 58.92 151.58 61.30 155.36 59.91 C 156.79 63.15 157.85 66.57 158.19 70.10 C 157.92 70.34 157.37 70.81 157.10 71.05 C 153.38 68.65 149.05 66.86 146.29 63.25 C 145.48 61.85 144.69 60.43 143.85 59.04 Z" />
</g>
<g id="#ea953aff">
<path fill="#ea953a" opacity="1.00" d=" M 92.85 70.13 C 107.94 59.73 127.17 57.32 144.20 63.90 C 144.72 63.74 145.77 63.41 146.29 63.25 C 149.05 66.86 153.38 68.65 157.10 71.05 C 151.81 77.28 143.17 81.20 135.01 82.03 C 129.66 81.99 124.31 82.00 118.97 82.00 C 109.36 81.05 99.93 76.61 92.85 70.13 Z" />
</g>
<g id="#9b4121ff">
<path fill="#9b4121" opacity="1.00" d=" M 75.05 60.73 C 80.61 72.51 86.18 85.39 98.38 91.89 C 98.88 92.74 98.82 93.56 98.20 94.34 C 92.03 92.53 85.21 89.02 83.91 82.04 C 81.50 74.73 74.95 68.76 75.05 60.73 Z" />
</g>
<g id="#b26d42ff">
<path fill="#b26d42" opacity="1.00" d=" M 237.25 67.67 C 235.84 64.00 241.11 64.04 243.43 62.91 C 248.42 63.06 252.78 64.75 256.00 68.62 L 256.00 92.84 C 252.69 89.41 249.20 97.82 247.23 93.39 C 254.52 87.95 242.35 92.30 239.60 89.43 C 237.68 86.42 232.05 82.37 231.11 88.24 C 219.61 91.46 230.67 79.95 224.18 75.74 C 227.12 77.65 230.47 79.56 231.77 83.02 C 231.14 78.03 237.25 82.16 239.01 78.50 C 235.07 77.44 230.17 74.11 237.15 73.63 C 241.10 77.74 246.07 80.03 252.01 80.80 C 253.37 75.10 250.27 79.91 247.10 76.99 C 244.44 73.16 240.00 71.31 237.25 67.67 Z" />
</g>
<g id="#c03a15ff">
<path fill="#c03a15" opacity="1.00" d=" M 195.16 71.74 C 198.14 70.52 198.10 75.45 199.47 77.15 C 199.65 78.10 199.87 79.03 200.11 79.96 C 205.66 85.15 204.36 94.37 204.63 101.77 C 204.39 103.05 204.17 104.34 203.96 105.62 C 203.10 109.03 202.29 112.45 201.36 115.84 C 198.85 123.91 194.38 131.21 188.95 137.63 C 179.07 149.88 164.85 157.14 150.24 162.16 C 144.35 161.92 138.71 164.15 132.81 163.90 C 139.43 161.84 147.24 162.25 152.96 157.92 C 167.53 152.72 183.44 141.43 183.49 124.36 C 184.13 121.34 187.62 126.91 189.32 124.38 C 192.95 119.89 183.98 117.67 185.13 113.29 C 188.45 108.90 197.99 111.67 196.73 103.64 C 201.27 92.90 192.70 82.09 195.16 71.74 Z" />
</g>
<g id="#a15932ff">
<path fill="#a15932" opacity="1.00" d=" M 166.12 75.01 C 167.05 73.90 168.02 72.82 169.09 71.83 C 165.76 79.68 162.02 88.61 155.15 93.79 C 150.65 96.25 145.95 98.33 141.23 100.32 C 139.35 100.07 137.48 99.72 135.63 99.31 C 147.78 94.65 160.34 87.20 166.12 75.01 Z" />
</g>
<g id="#c37d4eff">
<path fill="#c37d4e" opacity="1.00" d=" M 0.00 82.16 C 4.73 78.78 9.65 75.59 14.89 73.08 C 17.38 76.23 12.24 80.06 16.70 81.57 C 14.01 85.79 8.77 87.21 5.86 91.13 C 12.20 91.22 16.34 82.17 22.65 85.26 C 26.62 86.12 30.00 83.09 32.94 80.87 C 32.00 86.78 32.66 92.75 32.37 98.65 C 29.79 102.18 26.26 109.21 32.19 111.10 L 32.12 111.79 C 26.34 114.06 33.10 117.87 33.12 121.99 C 33.07 122.71 32.96 124.13 32.91 124.84 C 29.84 126.07 25.41 132.77 23.58 127.24 C 17.98 131.81 15.22 140.50 7.08 142.39 C 4.72 143.45 -0.13 145.23 1.86 148.51 C 3.36 149.92 0.75 150.50 0.00 151.38 L 0.00 115.13 C 3.27 117.41 5.92 114.20 7.32 111.46 C 4.65 112.26 2.22 111.16 0.00 109.73 L 0.00 82.16 M 5.09 101.55 C 2.37 101.56 4.36 104.87 1.50 105.51 C 2.12 107.52 16.30 102.49 11.13 99.03 C 16.73 90.53 -5.07 100.44 5.09 101.55 Z" />
</g>
<g id="#570f06ff">
<path fill="#570f06" opacity="1.00" d=" M 136.30 88.33 C 146.82 85.99 157.39 81.78 164.96 73.82 C 165.25 74.12 165.83 74.71 166.12 75.01 C 160.34 87.20 147.78 94.65 135.63 99.31 C 128.32 99.76 120.99 98.82 113.71 99.68 C 110.72 99.66 107.73 99.46 104.75 99.29 C 102.12 98.49 99.58 97.42 96.92 96.70 C 97.36 95.92 97.78 95.13 98.20 94.34 C 98.82 93.56 98.88 92.74 98.38 91.89 C 98.24 89.22 94.02 86.34 96.08 84.12 C 101.68 87.74 107.58 90.45 114.26 87.74 C 115.43 87.90 116.60 88.06 117.78 88.20 C 123.86 88.87 130.28 90.00 136.30 88.33 Z" />
</g>
<g id="#b16335ff">
<path fill="#b16335" opacity="1.00" d=" M 200.11 79.96 C 207.18 75.82 216.49 75.44 224.18 75.74 C 230.67 79.95 219.61 91.46 231.11 88.24 C 227.68 89.93 222.23 90.15 221.68 94.78 C 218.79 99.24 210.42 101.26 210.48 107.23 C 208.03 106.02 205.84 104.27 204.63 101.77 C 204.36 94.37 205.66 85.15 200.11 79.96 Z" />
</g>
<g id="#c4673dff">
<path fill="#c4673d" opacity="1.00" d=" M 68.29 81.32 C 74.18 78.66 67.76 95.00 67.79 85.99 C 62.31 85.89 60.14 97.17 55.08 94.86 C 58.06 89.34 62.74 84.36 68.29 81.32 Z" />
</g>
<g id="#f0b977ff">
<path fill="#f0b977" opacity="1.00" d=" M 118.97 82.00 C 124.31 82.00 129.66 81.99 135.01 82.03 C 132.60 83.21 121.33 84.52 118.97 82.00 Z" />
</g>
<g id="#e6d8d0ff">
<path fill="#e6d8d0" opacity="1.00" d=" M 162.68 88.85 C 163.58 87.39 164.65 86.03 165.84 84.79 C 165.60 86.85 165.30 88.92 164.94 90.97 C 162.83 92.85 162.68 90.86 162.68 88.85 Z" />
</g>
<g id="#a05127ff">
<path fill="#a05127" opacity="1.00" d=" M 231.11 88.24 C 232.05 82.37 237.68 86.42 239.60 89.43 C 242.35 92.30 254.52 87.95 247.23 93.39 C 249.20 97.82 252.69 89.41 256.00 92.84 L 256.00 103.00 C 246.92 98.91 243.03 109.97 239.08 115.69 C 248.06 116.74 240.10 127.51 236.18 131.15 C 233.08 135.39 239.45 131.14 241.14 130.39 C 246.87 131.79 250.68 126.71 256.00 125.83 L 256.00 171.00 L 232.81 171.00 C 233.81 165.61 239.60 161.73 237.20 156.04 C 238.56 151.89 244.89 151.15 247.10 147.14 C 243.70 143.56 238.89 146.10 236.42 149.42 C 232.74 154.41 226.47 156.24 221.21 158.98 C 221.82 157.05 221.51 155.67 219.25 155.53 C 217.35 150.81 223.41 155.69 224.81 152.83 C 228.73 147.79 219.87 151.55 216.83 151.72 C 216.44 148.98 218.55 147.11 219.93 145.04 C 215.05 142.25 210.64 146.50 205.91 144.65 C 206.43 141.27 202.73 146.16 200.99 146.19 C 204.31 142.81 206.48 137.23 211.80 136.74 C 212.42 132.57 206.24 136.10 205.10 138.34 C 202.03 134.04 207.30 130.80 210.48 128.58 C 214.01 127.48 214.42 123.17 217.67 121.64 C 223.00 118.71 231.04 116.05 232.04 109.37 C 225.36 109.61 223.40 101.17 218.18 99.11 C 215.63 101.86 218.08 106.75 221.03 108.22 C 220.49 111.08 217.58 113.36 215.86 115.94 C 211.17 113.33 208.84 107.89 203.96 105.62 C 204.17 104.34 204.39 103.05 204.63 101.77 C 205.84 104.27 208.03 106.02 210.48 107.23 C 210.42 101.26 218.79 99.24 221.68 94.78 C 222.23 90.15 227.68 89.93 231.11 88.24 Z" />
</g>
<g id="#d17544ff">
<path fill="#d17544" opacity="1.00" d=" M 38.28 90.73 C 38.05 83.03 42.56 96.59 39.79 98.24 C 39.30 95.72 38.86 93.22 38.28 90.73 Z" />
</g>
<g id="#98200aff">
<path fill="#98200a" opacity="1.00" d=" M 64.20 96.40 C 70.95 97.41 74.79 90.07 80.61 87.94 C 80.74 88.34 81.00 89.14 81.13 89.54 C 75.28 98.51 63.64 101.28 59.36 111.40 C 57.65 121.81 64.33 131.64 70.76 139.24 C 73.89 144.02 82.27 146.24 80.88 153.21 C 73.04 149.80 66.28 144.53 59.04 140.09 C 57.56 138.16 55.87 136.40 54.13 134.71 C 53.63 133.83 53.14 132.94 52.47 132.18 C 51.22 130.66 49.81 129.29 48.47 127.86 C 49.09 124.96 48.04 122.22 46.13 120.03 C 46.07 119.63 45.96 118.85 45.90 118.45 C 49.61 114.15 57.05 108.95 51.91 102.96 C 54.20 103.61 56.35 104.88 58.77 104.97 C 60.85 102.30 61.62 98.64 64.20 96.40 Z" />
</g>
<g id="#c88f6bff">
<path fill="#c88f6b" opacity="1.00" d=" M 117.78 88.20 C 123.95 88.06 130.13 88.03 136.30 88.33 C 130.28 90.00 123.86 88.87 117.78 88.20 Z" />
</g>
<g id="#bd7d53ff">
<path fill="#bd7d53" opacity="1.00" d=" M 81.82 90.03 C 82.08 89.75 82.59 89.19 82.84 88.92 C 85.01 92.02 87.54 94.90 89.25 98.30 C 87.46 96.94 85.82 95.39 84.29 93.76 C 83.64 92.72 82.98 91.70 82.28 90.71 L 81.82 90.03 Z" />
</g>
<g id="#a16c4aff">
<path fill="#a16c4a" opacity="1.00" d=" M 161.86 92.59 C 161.17 91.25 161.94 89.97 162.68 88.85 C 162.68 90.86 162.83 92.85 164.94 90.97 C 164.57 92.77 163.91 94.49 163.31 96.22 C 162.87 94.99 162.39 93.78 161.86 92.59 Z" />
</g>
<g id="#811606ff">
<path fill="#811606" opacity="1.00" d=" M 59.36 111.40 C 63.64 101.28 75.28 98.51 81.13 89.54 L 81.82 90.03 L 82.28 90.71 C 76.39 99.10 67.84 107.75 69.97 119.01 C 70.60 128.87 76.32 137.12 83.75 143.19 C 87.70 145.97 84.38 151.24 85.14 155.22 C 83.72 154.55 82.28 153.91 80.88 153.21 C 82.27 146.24 73.89 144.02 70.76 139.24 C 64.33 131.64 57.65 121.81 59.36 111.40 Z" />
<path fill="#811606" opacity="1.00" d=" M 157.15 144.09 C 158.87 143.11 160.60 142.13 162.35 141.22 C 154.52 153.54 137.73 153.67 126.73 161.88 C 118.64 161.99 110.36 162.52 102.48 160.23 C 109.39 152.01 122.35 158.39 131.38 155.41 C 137.34 153.00 143.43 150.90 149.29 148.26 C 151.98 147.00 154.60 145.61 157.15 144.09 Z" />
</g>
<g id="#ebc5b0ff">
<path fill="#ebc5b0" opacity="1.00" d=" M 38.28 90.73 C 38.86 93.22 39.30 95.72 39.79 98.24 C 40.58 103.14 42.09 107.89 43.28 112.71 C 43.02 113.04 42.49 113.71 42.22 114.04 C 39.88 106.63 35.35 98.62 38.28 90.73 Z" />
</g>
<g id="#5c0d04ff">
<path fill="#5c0d04" opacity="1.00" d=" M 82.28 90.71 C 82.98 91.70 83.64 92.72 84.29 93.76 C 80.75 99.16 76.03 104.52 77.20 111.52 C 70.51 116.86 76.38 125.97 79.03 131.97 C 80.85 138.40 92.92 142.03 88.81 149.73 C 88.07 151.78 87.48 153.88 86.90 155.98 C 86.46 155.79 85.58 155.41 85.14 155.22 C 84.38 151.24 87.70 145.97 83.75 143.19 C 76.32 137.12 70.60 128.87 69.97 119.01 C 67.84 107.75 76.39 99.10 82.28 90.71 Z" />
</g>
<g id="#3f150bff">
<path fill="#3f150b" opacity="1.00" d=" M 155.15 93.79 C 156.54 99.23 159.02 95.20 161.86 92.59 C 162.39 93.78 162.87 94.99 163.31 96.22 C 163.34 97.78 163.48 99.34 163.60 100.90 C 161.55 100.24 157.30 99.19 158.08 102.80 C 161.13 105.09 165.41 105.04 168.03 108.09 C 170.13 110.54 172.42 112.95 173.28 116.15 C 173.12 117.62 172.97 119.10 172.80 120.57 C 172.30 121.96 171.83 123.36 171.41 124.77 C 169.34 127.51 167.43 134.95 163.11 131.34 C 161.92 133.15 161.35 135.25 161.21 137.40 C 157.29 134.39 153.02 139.90 150.12 135.86 C 152.01 127.60 165.44 128.45 165.08 118.86 C 162.86 119.99 160.64 121.28 158.68 122.71 C 158.41 123.06 157.88 123.76 157.61 124.11 C 156.37 123.36 155.14 121.62 153.61 122.84 C 152.48 120.44 155.59 119.27 157.07 117.99 C 159.73 118.48 158.78 116.41 158.08 114.90 C 156.92 112.40 154.52 110.45 156.94 108.03 C 153.13 101.37 143.36 100.81 136.90 104.08 C 137.52 105.13 138.82 105.37 139.82 105.91 L 140.72 106.30 C 146.25 108.82 136.44 109.89 134.73 107.15 C 124.05 107.58 114.84 102.13 104.75 99.29 C 107.73 99.46 110.72 99.66 113.71 99.68 C 122.69 101.19 132.28 102.21 141.23 100.32 C 145.95 98.33 150.65 96.25 155.15 93.79 Z" />
</g>
<g id="#390603ff">
<path fill="#390603" opacity="1.00" d=" M 84.29 93.76 C 85.82 95.39 87.46 96.94 89.25 98.30 C 90.47 99.30 91.79 100.18 93.10 101.05 C 90.36 106.02 86.16 110.30 84.51 115.81 C 83.98 120.24 82.63 125.95 86.90 128.93 C 81.87 130.92 91.33 136.54 93.03 140.00 C 98.69 144.67 84.01 158.30 96.27 154.25 C 106.85 147.91 119.72 151.47 131.01 148.92 C 138.73 143.25 148.35 146.01 157.15 144.09 C 154.60 145.61 151.98 147.00 149.29 148.26 C 137.86 144.15 131.41 157.66 120.00 154.04 C 111.59 151.47 103.70 153.57 97.44 159.25 C 93.72 158.96 90.17 157.75 86.90 155.98 C 87.48 153.88 88.07 151.78 88.81 149.73 C 92.92 142.03 80.85 138.40 79.03 131.97 C 76.38 125.97 70.51 116.86 77.20 111.52 C 76.03 104.52 80.75 99.16 84.29 93.76 Z" />
</g>
<g id="#daa97bff">
<path fill="#daa97b" opacity="1.00" d=" M 5.09 101.55 C -5.07 100.44 16.73 90.53 11.13 99.03 C 9.89 101.20 7.32 101.37 5.09 101.55 Z" />
</g>
<g id="#280502ff">
<path fill="#280502" opacity="1.00" d=" M 99.85 101.14 C 97.41 100.73 94.56 99.32 96.92 96.70 C 99.58 97.42 102.12 98.49 104.75 99.29 C 114.84 102.13 124.05 107.58 134.73 107.15 C 135.21 112.24 142.07 108.87 142.46 113.53 C 143.40 115.67 138.86 114.92 139.62 117.85 C 139.04 120.91 138.52 124.19 139.49 127.24 C 140.05 129.06 140.82 130.80 141.75 132.46 C 142.74 134.40 144.24 136.05 145.94 137.40 C 150.34 140.13 156.71 139.95 161.21 137.40 C 164.16 136.13 166.65 134.07 169.02 131.94 C 167.33 135.38 165.11 138.56 162.35 141.22 C 160.60 142.13 158.87 143.11 157.15 144.09 C 148.35 146.01 138.73 143.25 131.01 148.92 C 119.72 151.47 106.85 147.91 96.27 154.25 C 84.01 158.30 98.69 144.67 93.03 140.00 C 91.33 136.54 81.87 130.92 86.90 128.93 C 93.64 134.95 97.98 126.20 99.36 120.15 C 101.91 114.50 104.47 108.51 110.11 105.31 C 105.83 106.77 103.61 100.87 99.85 101.14 M 100.16 131.16 C 99.16 135.80 104.80 130.16 100.16 131.16 Z" />
</g>
<g id="#8a4926ff">
<path fill="#8a4926" opacity="1.00" d=" M 11.13 99.03 C 16.30 102.49 2.12 107.52 1.50 105.51 C 4.36 104.87 2.37 101.56 5.09 101.55 C 7.32 101.37 9.89 101.20 11.13 99.03 Z" />
</g>
<g id="#7b2d15ff">
<path fill="#7b2d15" opacity="1.00" d=" M 113.71 99.68 C 120.99 98.82 128.32 99.76 135.63 99.31 C 137.48 99.72 139.35 100.07 141.23 100.32 C 132.28 102.21 122.69 101.19 113.71 99.68 Z" />
</g>
<g id="#914624ff">
<path fill="#914624" opacity="1.00" d=" M 218.18 99.11 C 223.40 101.17 225.36 109.61 232.04 109.37 C 231.04 116.05 223.00 118.71 217.67 121.64 C 214.42 123.17 214.01 127.48 210.48 128.58 C 207.30 130.80 202.03 134.04 205.10 138.34 C 202.94 141.40 200.75 144.88 197.11 146.32 C 198.85 141.96 203.31 137.80 201.00 132.85 C 201.94 127.86 205.77 119.83 201.36 115.84 C 202.29 112.45 203.10 109.03 203.96 105.62 C 208.84 107.89 211.17 113.33 215.86 115.94 C 217.58 113.36 220.49 111.08 221.03 108.22 C 218.08 106.75 215.63 101.86 218.18 99.11 Z" />
</g>
<g id="#9d2710ff">
<path fill="#9d2710" opacity="1.00" d=" M 99.85 101.14 C 103.61 100.87 105.83 106.77 110.11 105.31 C 104.47 108.51 101.91 114.50 99.36 120.15 C 98.03 120.76 96.71 121.39 95.40 122.03 C 93.95 120.93 92.37 119.80 90.56 120.85 C 88.27 119.51 85.86 118.22 84.51 115.81 C 86.16 110.30 90.36 106.02 93.10 101.05 C 95.34 101.16 97.68 102.10 99.85 101.14 M 94.24 108.12 C 90.77 110.38 98.59 113.81 99.87 110.79 C 101.15 107.09 97.58 107.17 94.24 108.12 Z" />
</g>
<g id="#71462dff">
<path fill="#71462d" opacity="1.00" d=" M 136.90 104.08 C 143.36 100.81 153.13 101.37 156.94 108.03 C 154.52 110.45 156.92 112.40 158.08 114.90 C 157.47 114.97 156.26 115.12 155.65 115.19 C 154.97 110.83 149.85 109.67 148.14 114.07 L 147.74 114.82 C 146.88 116.91 145.10 118.33 143.70 120.03 C 142.92 117.53 141.92 114.72 139.62 117.85 C 138.86 114.92 143.40 115.67 142.46 113.53 C 142.07 108.87 135.21 112.24 134.73 107.15 C 136.44 109.89 146.25 108.82 140.72 106.30 C 142.43 105.94 144.72 106.47 145.75 104.68 C 148.53 102.53 138.73 102.93 139.82 105.91 C 138.82 105.37 137.52 105.13 136.90 104.08 Z" />
</g>
<g id="#af5d2cff">
<path fill="#af5d2c" opacity="1.00" d=" M 239.08 115.69 C 243.03 109.97 246.92 98.91 256.00 103.00 L 256.00 125.83 C 250.68 126.71 246.87 131.79 241.14 130.39 C 239.45 131.14 233.08 135.39 236.18 131.15 C 240.10 127.51 248.06 116.74 239.08 115.69 Z" />
</g>
<g id="#e3d2c2ff">
<path fill="#e3d2c2" opacity="1.00" d=" M 139.82 105.91 C 138.73 102.93 148.53 102.53 145.75 104.68 C 144.72 106.47 142.43 105.94 140.72 106.30 L 139.82 105.91 Z" />
</g>
<g id="#47170aff">
<path fill="#47170a" opacity="1.00" d=" M 32.19 111.10 C 32.76 109.64 32.27 106.42 34.63 107.18 C 35.98 111.03 37.37 114.87 38.84 118.68 C 33.57 119.19 36.99 124.80 34.31 126.10 C 33.93 124.72 33.54 123.35 33.12 121.99 C 32.86 118.58 32.74 115.16 32.12 111.79 L 32.19 111.10 Z" />
</g>
<g id="#efc6a2ff">
<path fill="#efc6a2" opacity="1.00" d=" M 94.24 108.12 C 97.58 107.17 101.15 107.09 99.87 110.79 C 98.59 113.81 90.77 110.38 94.24 108.12 Z" />
</g>
<g id="#844828ff">
<path fill="#844828" opacity="1.00" d=" M 0.00 109.73 C 2.22 111.16 4.65 112.26 7.32 111.46 C 5.92 114.20 3.27 117.41 0.00 115.13 L 0.00 109.73 Z" />
</g>
<g id="#8e6143ff">
<path fill="#8e6143" opacity="1.00" d=" M 148.14 114.07 C 149.85 109.67 154.97 110.83 155.65 115.19 C 155.20 116.49 156.02 117.33 157.07 117.99 C 155.59 119.27 152.48 120.44 153.61 122.84 C 154.96 128.12 146.98 126.54 146.86 130.99 C 151.35 130.79 161.34 126.67 153.61 122.84 C 155.14 121.62 156.37 123.36 157.61 124.11 C 158.00 127.98 161.93 123.81 158.68 122.71 C 160.64 121.28 162.86 119.99 165.08 118.86 C 165.44 128.45 152.01 127.60 150.12 135.86 C 153.02 139.90 157.29 134.39 161.21 137.40 C 156.71 139.95 150.34 140.13 145.94 137.40 C 152.51 135.21 144.85 127.56 141.75 132.46 C 140.82 130.80 140.05 129.06 139.49 127.24 C 143.85 129.49 142.67 125.85 142.00 122.83 C 144.33 123.51 143.98 121.65 143.70 120.03 C 145.81 123.11 149.33 121.29 152.15 120.39 C 153.79 119.73 152.79 117.41 153.09 116.04 C 154.16 111.91 150.64 113.14 148.14 114.07 Z" />
</g>
<g id="#954f2aff">
<path fill="#954f2a" opacity="1.00" d=" M 33.12 121.99 C 33.10 117.87 26.34 114.06 32.12 111.79 C 32.74 115.16 32.86 118.58 33.12 121.99 Z" />
</g>
<g id="#ce7d57ff">
<path fill="#ce7d57" opacity="1.00" d=" M 43.28 112.71 C 44.20 114.60 45.07 116.52 45.90 118.45 C 45.96 118.85 46.07 119.63 46.13 120.03 C 44.06 118.63 42.96 116.35 42.22 114.04 C 42.49 113.71 43.02 113.04 43.28 112.71 Z" />
</g>
<g id="#c6a584ff">
<path fill="#c6a584" opacity="1.00" d=" M 148.14 114.07 C 150.64 113.14 154.16 111.91 153.09 116.04 C 152.02 113.85 149.65 114.75 147.74 114.82 L 148.14 114.07 Z" />
</g>
<g id="#f5f5f2ff">
<path fill="#f5f5f2" opacity="1.00" d=" M 147.74 114.82 C 149.65 114.75 152.02 113.85 153.09 116.04 C 152.79 117.41 153.79 119.73 152.15 120.39 C 148.76 120.62 147.37 117.80 147.74 114.82 Z" />
</g>
<g id="#d5bb9eff">
<path fill="#d5bb9e" opacity="1.00" d=" M 143.70 120.03 C 145.10 118.33 146.88 116.91 147.74 114.82 C 147.37 117.80 148.76 120.62 152.15 120.39 C 149.33 121.29 145.81 123.11 143.70 120.03 Z" />
</g>
<g id="#d2baa7ff">
<path fill="#d2baa7" opacity="1.00" d=" M 155.65 115.19 C 156.26 115.12 157.47 114.97 158.08 114.90 C 158.78 116.41 159.73 118.48 157.07 117.99 C 156.02 117.33 155.20 116.49 155.65 115.19 Z" />
</g>
<g id="#71180bff">
<path fill="#71180b" opacity="1.00" d=" M 86.90 128.93 C 82.63 125.95 83.98 120.24 84.51 115.81 C 85.86 118.22 88.27 119.51 90.56 120.85 C 91.99 121.80 93.70 123.62 95.40 122.03 C 96.71 121.39 98.03 120.76 99.36 120.15 C 97.98 126.20 93.64 134.95 86.90 128.93 Z" />
</g>
<g id="#cfb38dff">
<path fill="#cfb38d" opacity="1.00" d=" M 139.62 117.85 C 141.92 114.72 142.92 117.53 143.70 120.03 C 143.98 121.65 144.33 123.51 142.00 122.83 C 141.75 120.94 140.61 119.40 139.62 117.85 Z" />
</g>
<g id="#4d1b0dff">
<path fill="#4d1b0d" opacity="1.00" d=" M 201.36 115.84 C 205.77 119.83 201.94 127.86 201.00 132.85 C 197.84 133.37 200.87 138.05 197.68 139.65 C 195.75 147.72 190.32 155.21 182.70 158.95 C 185.89 153.03 190.39 147.61 192.04 140.99 C 192.77 138.81 190.35 138.42 188.95 137.63 C 194.38 131.21 198.85 123.91 201.36 115.84 Z" />
</g>
<g id="#805a39ff">
<path fill="#805a39" opacity="1.00" d=" M 139.49 127.24 C 138.52 124.19 139.04 120.91 139.62 117.85 C 140.61 119.40 141.75 120.94 142.00 122.83 C 140.56 123.92 139.87 125.52 139.49 127.24 Z" />
</g>
<g id="#1c0602ff">
<path fill="#1c0602" opacity="1.00" d=" M 34.31 126.10 C 36.99 124.80 33.57 119.19 38.84 118.68 C 46.65 135.17 61.01 147.65 76.85 156.18 C 99.30 167.08 126.34 170.14 150.24 162.16 C 164.85 157.14 179.07 149.88 188.95 137.63 C 190.35 138.42 192.77 138.81 192.04 140.99 C 190.39 147.61 185.89 153.03 182.70 158.95 C 182.40 159.26 181.81 159.87 181.52 160.18 C 177.76 163.65 174.17 167.31 170.64 171.00 L 68.58 171.00 C 64.80 166.90 59.13 164.64 54.88 160.74 C 53.73 159.42 52.58 158.07 51.11 157.09 C 45.34 147.98 40.36 138.35 35.01 128.98 C 34.77 128.01 34.54 127.05 34.31 126.10 Z" />
</g>
<g id="#b7766aff">
<path fill="#b7766a" opacity="1.00" d=" M 90.56 120.85 C 92.37 119.80 93.95 120.93 95.40 122.03 C 93.70 123.62 91.99 121.80 90.56 120.85 Z" />
</g>
<g id="#9e230bff">
<path fill="#9e230b" opacity="1.00" d=" M 171.41 124.77 C 171.83 123.36 172.30 121.96 172.80 120.57 C 180.31 121.84 175.00 132.23 172.62 136.46 C 169.23 147.05 158.42 151.97 150.08 158.15 C 142.79 161.29 134.62 162.14 126.73 161.88 C 137.73 153.67 154.52 153.54 162.35 141.22 C 165.11 138.56 167.33 135.38 169.02 131.94 C 170.15 129.70 171.92 127.43 171.41 124.77 Z" />
</g>
<g id="#834323ff">
<path fill="#834323" opacity="1.00" d=" M 33.12 121.99 C 33.54 123.35 33.93 124.72 34.31 126.10 C 34.54 127.05 34.77 128.01 35.01 128.98 C 34.25 128.28 33.50 127.58 32.76 126.87 C 32.80 126.36 32.87 125.35 32.91 124.84 C 32.96 124.13 33.07 122.71 33.12 121.99 Z" />
</g>
<g id="#d7c2a8ff">
<path fill="#d7c2a8" opacity="1.00" d=" M 139.49 127.24 C 139.87 125.52 140.56 123.92 142.00 122.83 C 142.67 125.85 143.85 129.49 139.49 127.24 Z" />
</g>
<g id="#d3bdb2ff">
<path fill="#d3bdb2" opacity="1.00" d=" M 153.61 122.84 C 161.34 126.67 151.35 130.79 146.86 130.99 C 146.98 126.54 154.96 128.12 153.61 122.84 Z" />
</g>
<g id="#e0c2b3ff">
<path fill="#e0c2b3" opacity="1.00" d=" M 157.61 124.11 C 157.88 123.76 158.41 123.06 158.68 122.71 C 161.93 123.81 158.00 127.98 157.61 124.11 Z" />
</g>
<g id="#d29a6dff">
<path fill="#d29a6d" opacity="1.00" d=" M 23.58 127.24 C 25.41 132.77 29.84 126.07 32.91 124.84 C 32.87 125.35 32.80 126.36 32.76 126.87 C 30.41 129.21 27.44 131.05 25.68 133.93 C 28.12 133.17 30.36 131.93 32.74 131.04 C 33.92 133.24 34.99 135.55 36.83 137.30 C 37.12 137.73 37.70 138.59 37.99 139.02 C 37.97 141.86 39.83 149.45 42.54 147.66 L 42.99 148.10 C 41.37 152.55 46.86 154.81 49.02 157.77 C 45.98 158.14 41.34 159.41 42.73 163.35 C 39.98 166.01 39.04 162.49 38.45 160.02 C 39.23 157.79 40.26 155.06 38.33 153.10 C 42.53 153.75 40.37 149.45 39.76 147.13 C 35.45 145.72 34.07 151.39 31.83 153.95 C 28.93 155.18 24.42 154.63 23.21 158.15 C 22.43 162.10 16.54 159.98 16.43 164.43 C 12.82 165.61 9.39 167.66 7.40 171.00 L 0.00 171.00 L 0.00 164.33 C 3.60 162.58 4.32 158.88 5.44 155.43 C 7.59 153.15 9.69 150.80 10.99 147.91 C 6.43 148.16 3.60 151.77 0.00 154.04 L 0.00 151.38 C 0.75 150.50 3.36 149.92 1.86 148.51 C -0.13 145.23 4.72 143.45 7.08 142.39 C 15.22 140.50 17.98 131.81 23.58 127.24 Z" />
</g>
<g id="#804a37ff">
<path fill="#804a37" opacity="1.00" d=" M 171.41 124.77 C 171.92 127.43 170.15 129.70 169.02 131.94 C 166.65 134.07 164.16 136.13 161.21 137.40 C 161.35 135.25 161.92 133.15 163.11 131.34 C 167.43 134.95 169.34 127.51 171.41 124.77 Z" />
</g>
<g id="#a5633aff">
<path fill="#a5633a" opacity="1.00" d=" M 25.68 133.93 C 27.44 131.05 30.41 129.21 32.76 126.87 C 33.50 127.58 34.25 128.28 35.01 128.98 C 34.90 131.97 37.33 134.26 36.83 137.30 C 34.99 135.55 33.92 133.24 32.74 131.04 C 30.36 131.93 28.12 133.17 25.68 133.93 Z" />
</g>
<g id="#d68152ff">
<path fill="#d68152" opacity="1.00" d=" M 52.47 132.18 C 50.25 133.14 47.79 130.00 48.47 127.86 C 49.81 129.29 51.22 130.66 52.47 132.18 Z" />
</g>
<g id="#5f2511ff">
<path fill="#5f2511" opacity="1.00" d=" M 35.01 128.98 C 40.36 138.35 45.34 147.98 51.11 157.09 C 47.71 154.70 46.01 150.81 42.99 148.10 L 42.54 147.66 C 41.23 144.68 39.96 141.64 37.99 139.02 C 37.70 138.59 37.12 137.73 36.83 137.30 C 37.33 134.26 34.90 131.97 35.01 128.98 Z" />
</g>
<g id="#c9a889ff">
<path fill="#c9a889" opacity="1.00" d=" M 141.75 132.46 C 144.85 127.56 152.51 135.21 145.94 137.40 C 144.24 136.05 142.74 134.40 141.75 132.46 Z" />
</g>
<g id="#81584eff">
<path fill="#81584e" opacity="1.00" d=" M 100.16 131.16 C 104.80 130.16 99.16 135.80 100.16 131.16 Z" />
</g>
<g id="#78371aff">
<path fill="#78371a" opacity="1.00" d=" M 197.68 139.65 C 200.87 138.05 197.84 133.37 201.00 132.85 C 203.31 137.80 198.85 141.96 197.11 146.32 C 200.75 144.88 202.94 141.40 205.10 138.34 C 206.24 136.10 212.42 132.57 211.80 136.74 C 206.48 137.23 204.31 142.81 200.99 146.19 C 202.73 146.16 206.43 141.27 205.91 144.65 C 204.52 146.80 206.01 147.26 208.06 147.36 C 206.87 151.13 202.22 152.86 201.77 157.01 C 204.48 154.94 207.25 152.77 205.40 157.64 C 204.56 158.41 203.73 159.20 202.93 160.01 C 201.60 156.69 198.57 160.68 196.16 159.67 C 193.02 158.40 191.12 161.37 189.03 163.16 C 188.46 159.49 192.57 158.52 194.17 155.88 C 189.63 156.36 186.29 162.41 181.52 160.18 C 181.81 159.87 182.40 159.26 182.70 158.95 C 190.32 155.21 195.75 147.72 197.68 139.65 Z" />
</g>
<g id="#dc9872ff">
<path fill="#dc9872" opacity="1.00" d=" M 54.13 134.71 C 55.87 136.40 57.56 138.16 59.04 140.09 C 56.45 139.37 54.26 137.56 54.13 134.71 Z" />
</g>
<g id="#b36f3fff">
<path fill="#b36f3f" opacity="1.00" d=" M 37.99 139.02 C 39.96 141.64 41.23 144.68 42.54 147.66 C 39.83 149.45 37.97 141.86 37.99 139.02 Z" />
</g>
<g id="#e5af87ff">
<path fill="#e5af87" opacity="1.00" d=" M 59.04 140.09 C 66.28 144.53 73.04 149.80 80.88 153.21 C 82.28 153.91 83.72 154.55 85.14 155.22 C 84.26 155.55 83.37 155.86 82.48 156.14 C 74.51 151.04 65.11 147.67 59.04 140.09 Z" />
</g>
<g id="#a95e31ff">
<path fill="#a95e31" opacity="1.00" d=" M 205.91 144.65 C 210.64 146.50 215.05 142.25 219.93 145.04 C 218.55 147.11 216.44 148.98 216.83 151.72 C 219.87 151.55 228.73 147.79 224.81 152.83 C 223.41 155.69 217.35 150.81 219.25 155.53 C 221.51 155.67 221.82 157.05 221.21 158.98 C 226.47 156.24 232.74 154.41 236.42 149.42 C 238.89 146.10 243.70 143.56 247.10 147.14 C 244.89 151.15 238.56 151.89 237.20 156.04 C 239.60 161.73 233.81 165.61 232.81 171.00 L 181.70 171.00 C 184.17 168.42 186.74 165.91 189.03 163.16 C 191.12 161.37 193.02 158.40 196.16 159.67 C 198.57 160.68 201.60 156.69 202.93 160.01 C 204.56 162.19 200.15 165.49 203.99 165.91 C 206.82 165.14 205.35 160.25 205.40 157.64 C 207.25 152.77 204.48 154.94 201.77 157.01 C 202.22 152.86 206.87 151.13 208.06 147.36 C 206.01 147.26 204.52 146.80 205.91 144.65 Z" />
</g>
<g id="#e7bc92ff">
<path fill="#e7bc92" opacity="1.00" d=" M 31.83 153.95 C 34.07 151.39 35.45 145.72 39.76 147.13 C 40.37 149.45 42.53 153.75 38.33 153.10 C 40.26 155.06 39.23 157.79 38.45 160.02 C 39.04 162.49 39.98 166.01 42.73 163.35 C 41.34 159.41 45.98 158.14 49.02 157.77 C 49.68 160.09 48.43 162.98 51.92 161.07 C 56.38 163.59 55.90 170.03 61.40 171.00 L 7.40 171.00 C 9.39 167.66 12.82 165.61 16.43 164.43 C 16.54 159.98 22.43 162.10 23.21 158.15 C 24.42 154.63 28.93 155.18 31.83 153.95 C 29.87 157.44 35.72 155.29 35.68 153.27 C 34.37 153.02 33.09 153.71 31.83 153.95 Z" />
</g>
<g id="#c28357ff">
<path fill="#c28357" opacity="1.00" d=" M 0.00 154.04 C 3.60 151.77 6.43 148.16 10.99 147.91 C 9.69 150.80 7.59 153.15 5.44 155.43 C 4.32 158.88 3.60 162.58 0.00 164.33 L 0.00 154.04 Z" />
</g>
<g id="#b06f42ff">
<path fill="#b06f42" opacity="1.00" d=" M 42.99 148.10 C 46.01 150.81 47.71 154.70 51.11 157.09 C 51.27 158.43 51.51 159.77 51.92 161.07 C 48.43 162.98 49.68 160.09 49.02 157.77 C 46.86 154.81 41.37 152.55 42.99 148.10 Z" />
</g>
<g id="#5c0c04ff">
<path fill="#5c0c04" opacity="1.00" d=" M 120.00 154.04 C 131.41 157.66 137.86 144.15 149.29 148.26 C 143.43 150.90 137.34 153.00 131.38 155.41 C 122.35 158.39 109.39 152.01 102.48 160.23 C 101.00 160.10 99.52 159.99 98.05 159.85 L 97.44 159.25 C 103.70 153.57 111.59 151.47 120.00 154.04 Z" />
</g>
<g id="#b37d57ff">
<path fill="#b37d57" opacity="1.00" d=" M 31.83 153.95 C 33.09 153.71 34.37 153.02 35.68 153.27 C 35.72 155.29 29.87 157.44 31.83 153.95 Z" />
</g>
<g id="#82200eff">
<path fill="#82200e" opacity="1.00" d=" M 85.14 155.22 C 85.58 155.41 86.46 155.79 86.90 155.98 C 90.17 157.75 93.72 158.96 97.44 159.25 L 98.05 159.85 C 108.13 165.45 121.54 163.33 132.81 163.90 C 138.71 164.15 144.35 161.92 150.24 162.16 C 126.34 170.14 99.30 167.08 76.85 156.18 C 78.72 156.29 80.68 156.93 82.48 156.14 C 83.37 155.86 84.26 155.55 85.14 155.22 Z" />
</g>
<g id="#521e0dff">
<path fill="#521e0d" opacity="1.00" d=" M 181.52 160.18 C 186.29 162.41 189.63 156.36 194.17 155.88 C 192.57 158.52 188.46 159.49 189.03 163.16 C 186.74 165.91 184.17 168.42 181.70 171.00 L 170.64 171.00 C 174.17 167.31 177.76 163.65 181.52 160.18 Z" />
</g>
<g id="#632a15ff">
<path fill="#632a15" opacity="1.00" d=" M 51.11 157.09 C 52.58 158.07 53.73 159.42 54.88 160.74 C 54.14 160.83 52.66 160.99 51.92 161.07 C 51.51 159.77 51.27 158.43 51.11 157.09 Z" />
</g>
<g id="#d28258ff">
<path fill="#d28258" opacity="1.00" d=" M 150.08 158.15 C 150.80 158.09 152.24 157.97 152.96 157.92 C 147.24 162.25 139.43 161.84 132.81 163.90 C 121.54 163.33 108.13 165.45 98.05 159.85 C 99.52 159.99 101.00 160.10 102.48 160.23 C 110.36 162.52 118.64 161.99 126.73 161.88 C 134.62 162.14 142.79 161.29 150.08 158.15 Z" />
</g>
<g id="#c38758ff">
<path fill="#c38758" opacity="1.00" d=" M 202.93 160.01 C 203.73 159.20 204.56 158.41 205.40 157.64 C 205.35 160.25 206.82 165.14 203.99 165.91 C 200.15 165.49 204.56 162.19 202.93 160.01 Z" />
</g>
<g id="#ae6c40ff">
<path fill="#ae6c40" opacity="1.00" d=" M 51.92 161.07 C 52.66 160.99 54.14 160.83 54.88 160.74 C 57.29 165.10 61.38 168.09 65.31 171.00 L 61.40 171.00 C 55.90 170.03 56.38 163.59 51.92 161.07 Z" />
</g>
<g id="#4e1b0cff">
<path fill="#4e1b0c" opacity="1.00" d=" M 54.88 160.74 C 59.13 164.64 64.80 166.90 68.58 171.00 L 65.31 171.00 C 61.38 168.09 57.29 165.10 54.88 160.74 Z" />
</g>
</svg>
